<svg xmlns="http://www.w3.org/2000/svg" xmlns:xlink="http://www.w3.org/1999/xlink" fill="none" version="1.1" width="12" height="12" viewBox="0 0 12 12"><defs><clipPath id="master_svg0_430_11183"><rect x="-0.5" y="-0.5" width="13" height="13" rx="0"/></clipPath></defs><g clip-path="url(#master_svg0_430_11183)"><path d="M4.170831535,1.5827060899999998Q3.318359375,3.1088696,3.318359255,6Q3.318359375,8.8911333,4.170831565,10.4172955Q4.915243375,11.75,6.0001845750000005,11.75Q7.091775375,11.75,7.828390575,10.4459076Q8.682034475,8.9346304,8.682034475,6Q8.682034475,3.0653708,7.828390575,1.55409342Q7.091774975,0.25000104,6.0001845750000005,0.25000104Q4.915243775,0.25,4.170831535,1.5827060899999998ZM5.043868375,9.9296417Q4.318359375,8.6307783,4.318359375,6Q4.318359375,3.3692243,5.043868575,2.0703602Q5.502098775,1.25,6.0001845750000005,1.25000101Q6.508123175,1.25000101,6.957690475,2.0459077Q7.682034475,3.3282754,7.682034475,6Q7.682034475,8.6717253,6.957690475,9.954092Q6.508122675,10.75,6.0001845750000005,10.75Q5.502097975,10.75,5.043868375,9.9296417Z" fill-rule="evenodd" fill="#483CFF" fill-opacity="1" style="mix-blend-mode:passthrough"/><path d="M9.043283025000001,2.09573027Q7.251147225,2.15051478,4.6573763249999995,3.6605217000000003L4.657372025,3.6605252Q2.064332845,5.1700785,1.122053739,6.7062716Q0.29910308500000005,8.047924,0.842139245,8.9963293Q1.390382765,9.9538069,2.930156425,9.913994299999999Q4.709460225,9.8679876,7.342314725,8.3352432Q9.974398625,6.802937,10.902695625,5.2736038999999995Q11.703895125,3.9536597,11.157513125,2.99943274Q10.612589825,2.04775751,9.043283025000001,2.09573027ZM1.974471505,7.2291331Q2.785080925,5.9076009,5.160488125,4.524744Q7.535137625,3.14230055,9.073837725,3.09526336Q10.043088925,3.06563398,10.289705325,3.49633235Q10.543083225,3.9388443,10.047852525,4.7547183Q9.251508725,6.0666628,6.839200525,7.4710231Q4.427637825,8.8749404,2.9043085250000003,8.914328600000001Q1.961473705,8.9387069,1.709952355,8.499437799999999Q1.461472925,8.065472100000001,1.974471505,7.2291331Z" fill-rule="evenodd" fill="#483CFF" fill-opacity="1" style="mix-blend-mode:passthrough"/><path d="M10.87819575,6.7062731Q9.93591885,5.170078999999999,7.34287265,3.6605239000000003Q4.74910285,2.15051529,2.95696195,2.09573081Q1.38765281,2.0477581000000002,0.84272844,2.99943289Q0.2963534,3.9536695,1.097553067,5.2736058Q2.02585787,6.8029408,4.65795995,8.3352432Q7.29081345,9.8679881,9.07009885,9.913994800000001Q10.60985375,9.9538078,11.15809675,8.9963341Q11.70114375,8.047927900000001,10.87819575,6.7062731ZM2.92640695,3.09526396Q4.46511075,3.14230102,6.83975695,4.5247422Q9.21517085,5.907602799999999,10.02577595,7.2291327Q10.53877255,8.065469700000001,10.29028795,8.499433Q10.03876305,8.9387074,9.09594775,8.9143291Q7.57263705,8.8749409,5.16107365,7.4710231Q2.74874545,6.0666642,1.9523951400000001,4.7547176Q1.45716238,3.9388467,1.71053511,3.49633485Q1.95715207,3.06563449,2.92640695,3.09526396Z" fill-rule="evenodd" fill="#483CFF" fill-opacity="1" style="mix-blend-mode:passthrough"/></g></svg>